<svg width="640" height="480" viewBox="0 0 640 480" fill="none" xmlns="http://www.w3.org/2000/svg">
  <rect width="640" height="480" rx="32" fill="url(#paint0_linear)"/>
  <g opacity="0.18">
    <path d="M36 360C76 316 122 300 172 320C258 356 348 330 430 272C524 206 588 208 624 240V480H36V360Z" fill="url(#paint1_linear)"/>
    <path d="M40 128C92 82 146 64 200 84C260 106 332 102 404 68C474 36 548 38 612 80V0H40V128Z" fill="url(#paint2_linear)"/>
  </g>
  <g filter="url(#filter0_dd)">
    <rect x="84" y="132" width="188" height="264" rx="32" fill="rgba(13,35,66,0.78)" stroke="rgba(120,177,255,0.4)" stroke-width="2"/>
    <circle cx="178" cy="202" r="46" fill="#F1F5F9"/>
    <path d="M178 172C195 172 208 185 208 202C208 219 195 232 178 232C161 232 148 219 148 202C148 185 161 172 178 172Z" fill="#0F172A"/>
    <path d="M124 358C124 320 153 290 191 290H205C243 290 272 320 272 358V372C272 380.837 264.837 388 256 388H140C131.163 388 124 380.837 124 372V358Z" fill="#1D4ED8"/>
  </g>
  <g filter="url(#filter1_dd)">
    <rect x="248" y="94" width="196" height="300" rx="34" fill="rgba(10,30,58,0.85)" stroke="rgba(120,177,255,0.45)" stroke-width="2"/>
    <circle cx="346" cy="176" r="54" fill="#E0F2FE"/>
    <path d="M346 142C368.867 142 387.2 160.333 387.2 183.2C387.2 206.067 368.867 224.4 346 224.4C323.133 224.4 304.8 206.067 304.8 183.2C304.8 160.333 323.133 142 346 142Z" fill="#0B1F3A"/>
    <path d="M284 348C284 302 321 266 367 266H377C423 266 460 302 460 348V366C460 374.837 452.837 382 444 382H300C291.163 382 284 374.837 284 366V348Z" fill="#2563EB"/>
  </g>
  <g filter="url(#filter2_dd)">
    <rect x="404" y="148" width="172" height="244" rx="28" fill="rgba(11,31,58,0.82)" stroke="rgba(120,177,255,0.35)" stroke-width="2"/>
    <circle cx="490" cy="214" r="42" fill="#FDF2F8"/>
    <path d="M490 188C505.464 188 518 200.536 518 216C518 231.464 505.464 244 490 244C474.536 244 462 231.464 462 216C462 200.536 474.536 188 490 188Z" fill="#1E293B"/>
    <path d="M438 330C438 300 462 276 492 276H500C530 276 554 300 554 330V344C554 352.837 546.837 360 538 360H448C439.163 360 432 352.837 432 344V332C432 330.895 432.895 330 434 330H438Z" fill="#38BDF8"/>
  </g>
  <defs>
    <filter id="filter0_dd" x="64" y="116" width="228" height="304" filterUnits="userSpaceOnUse" color-interpolation-filters="sRGB">
      <feFlood flood-opacity="0" result="BackgroundImageFix"/>
      <feColorMatrix in="SourceAlpha" type="matrix" values="0 0 0 0 0 0 0 0 0 0 0 0 0 0 0 0 0 0 127 0" result="hardAlpha"/>
      <feOffset dy="8"/>
      <feGaussianBlur stdDeviation="10"/>
      <feColorMatrix type="matrix" values="0 0 0 0 0.113725 0 0 0 0 0.235294 0 0 0 0 0.372549 0 0 0 0.35 0"/>
      <feBlend mode="normal" in2="BackgroundImageFix" result="effect1_dropShadow"/>
      <feBlend mode="normal" in="SourceGraphic" in2="effect1_dropShadow" result="shape"/>
    </filter>
    <filter id="filter1_dd" x="226" y="74" width="240" height="344" filterUnits="userSpaceOnUse" color-interpolation-filters="sRGB">
      <feFlood flood-opacity="0" result="BackgroundImageFix"/>
      <feColorMatrix in="SourceAlpha" type="matrix" values="0 0 0 0 0 0 0 0 0 0 0 0 0 0 0 0 0 0 127 0" result="hardAlpha"/>
      <feOffset dy="10"/>
      <feGaussianBlur stdDeviation="14"/>
      <feColorMatrix type="matrix" values="0 0 0 0 0.101961 0 0 0 0 0.207843 0 0 0 0 0.356863 0 0 0 0.4 0"/>
      <feBlend mode="normal" in2="BackgroundImageFix" result="effect1_dropShadow"/>
      <feBlend mode="normal" in="SourceGraphic" in2="effect1_dropShadow" result="shape"/>
    </filter>
    <filter id="filter2_dd" x="384" y="132" width="212" height="284" filterUnits="userSpaceOnUse" color-interpolation-filters="sRGB">
      <feFlood flood-opacity="0" result="BackgroundImageFix"/>
      <feColorMatrix in="SourceAlpha" type="matrix" values="0 0 0 0 0 0 0 0 0 0 0 0 0 0 0 0 0 0 127 0" result="hardAlpha"/>
      <feOffset dy="10"/>
      <feGaussianBlur stdDeviation="12"/>
      <feColorMatrix type="matrix" values="0 0 0 0 0.105882 0 0 0 0 0.215686 0 0 0 0 0.372549 0 0 0 0.32 0"/>
      <feBlend mode="normal" in2="BackgroundImageFix" result="effect1_dropShadow"/>
      <feBlend mode="normal" in="SourceGraphic" in2="effect1_dropShadow" result="shape"/>
    </filter>
    <linearGradient id="paint0_linear" x1="78" y1="36" x2="596" y2="444" gradientUnits="userSpaceOnUse">
      <stop stop-color="#0B1F3A"/>
      <stop offset="1" stop-color="#102D56"/>
    </linearGradient>
    <linearGradient id="paint1_linear" x1="84" y1="284" x2="616" y2="452" gradientUnits="userSpaceOnUse">
      <stop stop-color="#1D4ED8" stop-opacity="0.6"/>
      <stop offset="1" stop-color="#38BDF8" stop-opacity="0.2"/>
    </linearGradient>
    <linearGradient id="paint2_linear" x1="72" y1="24" x2="604" y2="128" gradientUnits="userSpaceOnUse">
      <stop stop-color="#38BDF8" stop-opacity="0.3"/>
      <stop offset="1" stop-color="#0EA5E9" stop-opacity="0.1"/>
    </linearGradient>
  </defs>
</svg>
