<svg xmlns="http://www.w3.org/2000/svg" viewBox="0 0 64 64" role="img" aria-labelledby="title desc">
  <title id="title">Bluecrew favicon</title>
  <desc id="desc">Monogrammet Bc i lys kontrast på blå gradient</desc>
  <defs>
    <linearGradient id="bc-gradient" x1="0%" y1="0%" x2="100%" y2="100%">
      <stop offset="0%" stop-color="#0B1F3A" />
      <stop offset="100%" stop-color="#1E3A8A" />
    </linearGradient>
  </defs>
  <rect width="64" height="64" rx="14" fill="url(#bc-gradient)" />
  <path
    d="M20 18h12c7 0 11.5 4.3 11.5 10.2 0 4.1-2.2 7.2-5.8 8.7v.2c4.5 1.2 7.4 4.9 7.4 9.9 0 6.8-5.3 11.5-13.5 11.5H20V18zm11.7 13.2c2.8 0 4.5-1.6 4.5-4 0-2.4-1.7-3.9-4.5-3.9h-4.8v7.9h4.8zm.7 18.5c3.3 0 5.3-1.8 5.3-4.6s-2-4.6-5.3-4.6h-5.5v9.2h5.5z"
    fill="#F8FAFC"
  />
  <path
    d="M51.3 44.8c-1.4 2.9-4.2 4.6-7.6 4.6-5.1 0-8.9-3.9-8.9-9.4 0-5.6 3.8-9.5 8.9-9.5 3.4 0 6.2 1.8 7.6 4.5l4.9-2.8c-1.9-4.7-6.6-7.6-12.4-7.6-8.4 0-14.4 6.3-14.4 15.5 0 8.9 5.9 15.3 14.3 15.3 5.9 0 10.4-3 12.3-7.4l-4.7-2.9z"
    fill="#C7D2FE"
  />
</svg>
