<svg xmlns="http://www.w3.org/2000/svg" viewBox="0 0 64 64" role="img" aria-labelledby="title desc">
  <title id="title">Bluecrew favicon</title>
  <desc id="desc">Monogrammet Bc på blå gradientbakgrunn</desc>
  <defs>
    <linearGradient id="bc-gradient" x1="0%" y1="0%" x2="100%" y2="100%">
      <stop offset="0%" stop-color="#0B1F3A" />
      <stop offset="100%" stop-color="#1E3A8A" />
    </linearGradient>
  </defs>
  <rect width="64" height="64" rx="16" fill="url(#bc-gradient)" />
  <g fill="#F8FAFC">
    <path d="M16 18h9.5c6.3 0 10.5 3.4 10.5 8s-4.2 8-10.5 8H16z" opacity="0.95" />
    <rect x="16" y="18" width="7" height="28" rx="3.5" />
    <path d="M16 34h10.5c6.4 0 10.5 3.6 10.5 8.6S32.4 51 26 51H16z" opacity="0.9" />
    <path
      d="M36 32c0-7 5.2-11.5 11.8-11.5 3.6 0 6.4 0.9 8.8 2.6l-2.7 4.3c-1.6-1.1-3.3-1.7-5.2-1.7-3.7 0-6.3 2.7-6.3 6.4v9.1c0 3.7 2.6 6.4 6.3 6.4 1.9 0 3.9-0.6 5.4-1.8l2.6 4.4c-2.4 1.9-5.2 2.9-8.7 2.9C41.2 53 36 48.4 36 41.6z"
    />
  </g>
</svg>
