<svg xmlns="http://www.w3.org/2000/svg" viewBox="0 0 64 64" role="img" aria-label="Bluecrew ikon">
  <defs>
    <linearGradient id="a" x1="0%" y1="0%" x2="100%" y2="100%">
      <stop offset="0%" stop-color="#38bdf8" />
      <stop offset="100%" stop-color="#0ea5e9" />
    </linearGradient>
  </defs>
  <rect width="64" height="64" rx="14" fill="#041024" />
  <path
    d="M18 18h14c8.837 0 16 7.163 16 16s-7.163 16-16 16H18V18zm10.5 10.5V41h3.5c4.418 0 8-3.582 8-8s-3.582-8-8-8h-3.5z"
    fill="url(#a)"
  />
  <path
    d="M18 12c-3.314 0-6 2.686-6 6v28c0 3.314 2.686 6 6 6h14c12.15 0 22-9.85 22-22S44.15 8 32 8H18zm0 6h14c8.837 0 16 7.163 16 16s-7.163 16-16 16H18a2 2 0 0 1-2-2V20a2 2 0 0 1 2-2z"
    fill="#8dd9ff"
    opacity="0.55"
  />
</svg>
