<svg xmlns="http://www.w3.org/2000/svg" viewBox="0 0 64 64" role="img" aria-label="Bluecrew bølgeikon">
  <defs>
    <linearGradient id="bg" x1="0%" y1="0%" x2="100%" y2="100%">
      <stop offset="0%" stop-color="#0B1F3A" />
      <stop offset="100%" stop-color="#163C74" />
    </linearGradient>
    <linearGradient id="wave" x1="0%" y1="0%" x2="100%" y2="0%">
      <stop offset="0%" stop-color="#60A5FA" />
      <stop offset="100%" stop-color="#22D3EE" />
    </linearGradient>
  </defs>
  <rect width="64" height="64" rx="14" fill="url(#bg)" />
  <path
    d="M12 30c6 0 9-6 16-6s10 6 16 6 10-6 12-6"
    fill="none"
    stroke="#ffffff"
    stroke-width="3.6"
    stroke-linecap="round"
  />
  <path
    d="M12 40c6 0 9-6 16-6s10 6 16 6 10-6 12-6"
    fill="none"
    stroke="url(#wave)"
    stroke-width="3.6"
    stroke-linecap="round"
  />
  <path
    d="M20 21c2.5 3.4 6.5 5.5 10.8 5.5 6 0 11-4.4 11-10 0-1.8-.4-3.4-1.1-4.8"
    fill="none"
    stroke="#8AB4FF"
    stroke-width="3.2"
    stroke-linecap="round"
  />
</svg>
