<svg xmlns="http://www.w3.org/2000/svg" viewBox="0 0 64 64" role="img" aria-label="Bluecrew ikon">
  <defs>
    <linearGradient id="icon-bg" x1="0%" y1="0%" x2="100%" y2="100%">
      <stop offset="0%" stop-color="#0c2d52" />
      <stop offset="100%" stop-color="#103a74" />
    </linearGradient>
    <linearGradient id="icon-wave" x1="0%" y1="0%" x2="100%" y2="0%">
      <stop offset="0%" stop-color="#38bdf8" />
      <stop offset="100%" stop-color="#0ea5e9" />
    </linearGradient>
  </defs>
  <rect width="64" height="64" rx="16" fill="url(#icon-bg)" />
  <path d="M6 44c6 4 12 4 18 0s12-4 18 0 12 4 18 0v16H6z" fill="rgba(15,23,42,0.55)" />
  <path d="M4 48c6 3.4 12 3.4 18 0s12-3.4 18 0 12 3.4 18 0v12H4z" fill="url(#icon-wave)" />
  <path d="M20 18c7.6 0 13.8 5.8 13.8 14.4S27.6 46 20 46h-6l18.6-26.8C36 15 41.7 12 48 12h6l-5 6.8c-5.5 7.5-7.4 10.5-7.4 14.4 0 4.6 3 7.8 7.3 8.7l-3.3 7c-9.4-0.6-16.4-8-16.4-17.4 0-3 0.7-5.8 2.4-8.4l2.7-3.9c-2.4-1.8-5.4-2.9-8.4-2.9-4.4 0-8.2 1.8-11.1 5.3l-6.6-4.6C12 20.2 15.8 18 20 18z" fill="#f8fafc" stroke="rgba(226,238,255,0.75)" stroke-width="1.4" stroke-linejoin="round" />
  <path d="M22 34.5 28.8 42l13.2-17" fill="none" stroke="#0ea5e9" stroke-width="3" stroke-linecap="round" stroke-linejoin="round" />
  <circle cx="48" cy="15" r="5" fill="#facc15" stroke="#f8fafc" stroke-width="1.5" />
</svg>
